# xmcd
#
# Track frame offsets: 
#        150
#        9715
#        22311
#        40898
#        52167
#        74355
#        93070
#        114905
#        131902
#        154817
#        180436
#        203246
#
# Disc length: 3001 seconds
#
# Revision: 0
# Processed by: cddbd v1.5.2PL0 Copyright (c) Steve Scherf et al.
# Submitted via: ExactAudioCopy v1.0b3
#
DISCID=a50bb70c
DTITLE=Jon Kenzie - Sing A Little Higher
DYEAR=2013
DGENRE=
TTITLE0=Sing A Little Higher
TTITLE1=Coming Around
TTITLE2=Mr Destiny
TTITLE3=Hang Me On The Line
TTITLE4=Pay No Mind
TTITLE5=Gloomy Deep
TTITLE6=Puppet King
TTITLE7=Silly Little Thing
TTITLE8=Four Little Words
TTITLE9=Killing Time
TTITLE10=Work
TTITLE11=Extra Track
EXTD=
EXTT0=
EXTT1=
EXTT2=
EXTT3=
EXTT4=
EXTT5=
EXTT6=
EXTT7=
EXTT8=
EXTT9=
EXTT10=
EXTT11=
PLAYORDER=
